<?xml version="1.0" encoding="UTF-8" standalone="no"?>
<!-- Created using Krita: https://krita.org -->

<svg
   width="50.153801pt"
   height="80.477295pt"
   viewBox="0 0 50.153801 80.477297"
   version="1.1"
   id="svg23"
   xmlns="http://www.w3.org/2000/svg"
   xmlns:svg="http://www.w3.org/2000/svg">
  <defs
     id="defs17">
    <linearGradient
       id="gradient0"
       gradientUnits="userSpaceOnUse"
       x1="2.7589792e-07"
       y1="120.94415"
       x2="241.88832"
       y2="120.94415"
       spreadMethod="pad"
       gradientTransform="scale(1.9049039,0.52496087)">
      <stop
         stop-color="#ff8008"
         offset="0"
         stop-opacity="1"
         id="stop2" />
      <stop
         stop-color="#e5b422"
         offset="1"
         stop-opacity="1"
         id="stop4" />
    </linearGradient>
    <linearGradient
       id="gradient1"
       gradientUnits="userSpaceOnUse"
       x1="2.7589772e-07"
       y1="120.94415"
       x2="241.88832"
       y2="120.94415"
       spreadMethod="pad"
       gradientTransform="scale(1.9049039,0.52496087)">
      <stop
         stop-color="#ff8008"
         offset="0"
         stop-opacity="1"
         id="stop7" />
      <stop
         stop-color="#e5b422"
         offset="1"
         stop-opacity="1"
         id="stop9" />
    </linearGradient>
    <linearGradient
       id="gradient2"
       gradientUnits="userSpaceOnUse"
       x1="2.7589778e-07"
       y1="120.94415"
       x2="241.88832"
       y2="120.94415"
       spreadMethod="pad"
       gradientTransform="scale(1.9049039,0.52496087)">
      <stop
         stop-color="#ff8008"
         offset="0"
         stop-opacity="1"
         id="stop12" />
      <stop
         stop-color="#e5b422"
         offset="1"
         stop-opacity="1"
         id="stop14" />
    </linearGradient>
  </defs>
  <g
     id="layer1"
     transform="matrix(0.24,0,0,0.24,-34.8543,-22.453606)"
     fill="none">
    <path
       id="path2909-4"
       transform="matrix(-0.05777125,-0.35422188,0.47847832,-0.09905882,259.70292,365.63916)"
       fill="url(#gradient0)"
       stroke-opacity="0"
       stroke="#000000"
       stroke-width="0"
       stroke-linecap="square"
       stroke-linejoin="bevel"
       d="m 0,40.4064 c 0,0 7.76192,9.7789 23.7692,21.4798 16.0841,11.7571 40.2512,24.4472 69.7787,27.838 31.3691,3.6854 65.9111,-3.779 93.8591,-22.0605 8.005,-5.114 15.96,-11.541 24.398,-18.3035 2.277,-1.8249 4.61,-3.6907 6.994,-5.5701 11.105,-8.9296 23.586,-18.3086 38.191,-26.1345 36.561,-19.08752 76.088,-21.0734 108.892,-13.64309 33.855,7.62139 58.376,24.12779 73.407,37.42179 15.123,13.375 21.485,23.3561 21.485,23.3561 0,0 -9.426,-7.2574 -26.79,-15.3196 -17.515,-8.1326 -42.455,-16.2061 -71.709,-16.3935 -28.079,-0.1298 -58.317,7.0742 -82.817,23.3533 -10.075,6.4735 -19.975,15.1154 -30.911,24.0539 -2.317,1.9322 -4.678,3.8775 -7.102,5.8238 -8.97,7.2018 -18.948,14.5427 -30.3,21.0137 C 170.097,130.323 123.79,131.61 86.6098,119.087 52.0151,107.354 29.3933,85.6134 16.7301,68.9993 3.92056,52.1931 0,40.4064 0,40.4064 Z"
       style="fill:url(#gradient0)" />
    <path
       id="path2909"
       transform="matrix(-0.09973436,-0.71386301,0.82602865,-0.19963316,261.87972,435.42052)"
       fill="url(#gradient1)"
       stroke-opacity="0"
       stroke="#000000"
       stroke-width="0"
       stroke-linecap="square"
       stroke-linejoin="bevel"
       d="m 0,40.4064 c 0,0 7.76192,9.7789 23.7692,21.4798 16.0841,11.7571 40.2512,24.4472 69.7787,27.838 31.3691,3.6854 65.9111,-3.779 93.8591,-22.0605 8.005,-5.114 15.96,-11.541 24.398,-18.3035 2.277,-1.8249 4.61,-3.6907 6.994,-5.5701 11.105,-8.9296 23.586,-18.3086 38.191,-26.1345 36.561,-19.08752 76.088,-21.0734 108.892,-13.64309 33.855,7.62139 58.376,24.12779 73.407,37.42179 15.123,13.375 21.485,23.3561 21.485,23.3561 0,0 -9.426,-7.2574 -26.79,-15.3196 -17.515,-8.1326 -42.455,-16.2061 -71.709,-16.3935 -28.079,-0.1298 -58.317,7.0742 -82.817,23.3533 -10.075,6.4735 -19.975,15.1154 -30.911,24.0539 -2.317,1.9322 -4.678,3.8775 -7.102,5.8238 -8.97,7.2018 -18.948,14.5427 -30.3,21.0137 C 170.097,130.323 123.79,131.61 86.6098,119.087 52.0151,107.354 29.3933,85.6134 16.7301,68.9993 3.92056,52.1931 0,40.4064 0,40.4064 Z"
       style="fill:url(#gradient1)" />
    <path
       id="path2909-0"
       transform="matrix(0.06814641,-0.58835928,-0.66443298,-0.26553665,220.91239,439.60813)"
       fill="url(#gradient2)"
       stroke-opacity="0"
       stroke="#000000"
       stroke-width="0"
       stroke-linecap="square"
       stroke-linejoin="bevel"
       d="m 0,40.4064 c 0,0 7.76192,9.7789 23.7692,21.4798 16.0841,11.7571 40.2512,24.4472 69.7787,27.838 31.3691,3.6854 65.9111,-3.779 93.8591,-22.0605 8.005,-5.114 15.96,-11.541 24.398,-18.3035 2.277,-1.8249 4.61,-3.6907 6.994,-5.5701 11.105,-8.9296 23.586,-18.3086 38.191,-26.1345 36.561,-19.08752 76.088,-21.0734 108.892,-13.64309 33.855,7.62139 58.376,24.12779 73.407,37.42179 15.123,13.375 21.485,23.3561 21.485,23.3561 0,0 -9.426,-7.2574 -26.79,-15.3196 -17.515,-8.1326 -42.455,-16.2061 -71.709,-16.3935 -28.079,-0.1298 -58.317,7.0742 -82.817,23.3533 -10.075,6.4735 -19.975,15.1154 -30.911,24.0539 -2.317,1.9322 -4.678,3.8775 -7.102,5.8238 -8.97,7.2018 -18.948,14.5427 -30.3,21.0137 C 170.097,130.323 123.79,131.61 86.6098,119.087 52.0151,107.354 29.3933,85.6134 16.7301,68.9993 3.92056,52.1931 0,40.4064 0,40.4064 Z"
       style="fill:url(#gradient2)" />
  </g>
</svg>
