<?xml version="1.0" encoding="UTF-8" standalone="no"?>
<!-- Created with Inkscape (http://www.inkscape.org/) -->

<svg
   width="43.521889mm"
   height="23.597528mm"
   viewBox="0 0 43.521889 23.597528"
   version="1.1"
   id="svg5"
   sodipodi:docname="logo-text.svg"
   inkscape:version="1.2.2 (732a01da63, 2022-12-09)"
   xmlns:inkscape="http://www.inkscape.org/namespaces/inkscape"
   xmlns:sodipodi="http://sodipodi.sourceforge.net/DTD/sodipodi-0.dtd"
   xmlns="http://www.w3.org/2000/svg"
   xmlns:svg="http://www.w3.org/2000/svg">
  <sodipodi:namedview
     id="namedview188"
     pagecolor="#ffffff"
     bordercolor="#999999"
     borderopacity="1"
     inkscape:showpageshadow="0"
     inkscape:pageopacity="0"
     inkscape:pagecheckerboard="0"
     inkscape:deskcolor="#d1d1d1"
     inkscape:document-units="mm"
     showgrid="false"
     inkscape:zoom="3.6475899"
     inkscape:cx="60.450875"
     inkscape:cy="156.26757"
     inkscape:window-width="1920"
     inkscape:window-height="1057"
     inkscape:window-x="-8"
     inkscape:window-y="-8"
     inkscape:window-maximized="1"
     inkscape:current-layer="svg5" />
  <defs
     id="defs2">
    <rect
       x="231.99545"
       y="119.62266"
       width="277.03168"
       height="41.710567"
       id="rect1678" />
  </defs>
  <g
     id="layer1"
     transform="translate(-60.342569,-19.206579)">
    <g
       aria-label="Vulpi"
       transform="scale(0.26458333)"
       id="text1676"
       style="font-size:96px;line-height:0;font-family:Gabriola;-inkscape-font-specification:'Gabriola, Normal';white-space:pre;shape-inside:url(#rect1678);opacity:1;fill:#ff6600;fill-rule:evenodd;stroke:#6a6a6a;stroke-width:2;stroke-linecap:round;stroke-linejoin:bevel;stroke-opacity:0.330769;paint-order:fill markers stroke"
       inkscape:label="text1676">
      <path
         d="m 244.44141,89.083984 q 0.86718,2.742188 1.89843,6.609375 1.03125,3.84375 2.20313,9.093751 1.19531,5.22656 2.50781,11.97656 1.33594,6.75 2.78906,15.28125 h 0.14063 q 2.17969,-4.21875 4.24219,-8.39062 2.08593,-4.17188 3.91406,-8.10938 1.82812,-3.96094 3.35156,-7.59375 1.52344,-3.65625 2.625,-6.84375 1.10156,-3.187498 1.71094,-5.812498 0.60937,-2.648438 0.60937,-4.59375 0,-4.945313 -3.25781,-7.757813 l 0.1875,-0.421875 q 0.44531,-0.07031 0.91406,-0.117187 0.46875,-0.04687 0.96094,-0.04687 1.19531,0 2.34375,0.304687 1.17188,0.28125 2.08594,0.960938 0.91406,0.679687 1.47656,1.828125 0.58594,1.148437 0.58594,2.859375 0,1.523437 -0.72656,4.195312 -0.72657,2.671875 -2.08594,6.257813 -1.35938,3.585938 -3.32813,7.992188 -1.94531,4.40625 -4.38281,9.42187 -2.4375,4.99219 -5.34375,10.5 -2.88281,5.48438 -6.11719,11.25 l -3.84375,0.30469 -0.49218,-0.0703 q -3.63282,-18.58594 -6.1875,-30.21094 -2.55469,-11.648436 -4.40625,-16.499998 -0.46875,-1.242188 -0.96094,-2.132813 -0.49219,-0.890625 -1.125,-1.453125 -0.63281,-0.5625 -1.5,-0.820312 -0.84375,-0.257813 -2.0625,-0.257813 -0.77344,0 -1.71094,0.117188 -0.9375,0.09375 -2.13281,0.28125 l -0.25781,-2.085938 q 3.63281,-0.914062 6.07031,-1.40625 2.4375,-0.492187 4.10156,-0.492187 1.19531,0 1.96875,0.351562 0.77344,0.328125 1.3125,1.054688 0.5625,0.703125 0.98438,1.828125 0.44531,1.101562 0.9375,2.648437 z"
         id="path361" />
      <path
         d="m 286.51172,107.9043 q 0,1.59375 -0.11719,3.42187 -0.0937,1.80469 -0.25781,3.67969 -0.14063,1.875 -0.32813,3.75 -0.16406,1.85156 -0.32812,3.51562 -0.14063,1.66407 -0.25781,3.07032 -0.0937,1.38281 -0.0937,2.32031 0,2.78906 1.05468,4.07812 1.05469,1.28907 2.8125,1.28907 1.99219,0 4.07813,-2.13282 2.08594,-2.15625 3.98437,-6.28125 1.89844,-4.125 3.23438,-9.25781 1.33594,-5.15625 1.71094,-11.10937 l 4.96875,-0.60938 0.375,0.0234 q -0.21094,2.22656 -0.39844,4.73437 -0.16406,2.48438 -0.30469,4.99219 -0.14062,2.48438 -0.21094,4.875 -0.0703,2.39063 -0.0703,4.40625 0,3.82031 0.44531,6.25781 0.44532,2.41407 1.14844,3.82032 0.70313,1.38281 1.59375,1.92187 0.91406,0.51563 1.82813,0.51563 0.53906,0 1.05468,-0.14063 0.53907,-0.14062 1.00782,-0.32812 0.46875,-0.21094 0.84375,-0.44532 0.39843,-0.23437 0.67968,-0.42187 l 0.77344,1.07812 q -0.67969,0.70313 -1.54687,1.33594 -0.86719,0.60938 -1.82813,1.05469 -0.96094,0.46875 -2.01562,0.72656 -1.05469,0.25781 -2.13282,0.25781 -1.35937,0 -2.64843,-0.53906 -1.26563,-0.53906 -2.25,-1.80469 -0.98438,-1.26562 -1.59375,-3.375 -0.58594,-2.10937 -0.58594,-5.25 0,-1.00781 0.0469,-2.03906 0.0469,-1.03125 0.14063,-2.17969 0.0937,-1.14843 0.23437,-2.46093 0.16407,-1.33594 0.375,-2.92969 l -0.25781,-0.0469 q -1.59375,5.88282 -3.46875,9.86719 -1.85156,3.98438 -3.82031,6.42188 -1.94531,2.4375 -3.91406,3.46875 -1.96875,1.05468 -3.75,1.05468 -1.33594,0 -2.57813,-0.46875 -1.21875,-0.44531 -2.17969,-1.47656 -0.96093,-1.05469 -1.54687,-2.76562 -0.5625,-1.71094 -0.5625,-4.21875 0,-1.64063 0.1875,-3.79688 0.1875,-2.17969 0.39844,-4.61719 0.23437,-2.46093 0.42187,-5.0625 0.1875,-2.625 0.1875,-5.17968 0,-1.03125 -0.0703,-1.78125 -0.0703,-0.75 -0.30469,-1.24219 -0.23437,-0.49219 -0.70312,-0.72656 -0.44532,-0.23438 -1.24219,-0.23438 -0.79688,0 -2.08594,0.23438 -1.26562,0.23437 -2.67187,0.63281 l -0.35157,-1.6875 q 1.92188,-0.67969 3.5625,-1.17188 1.66407,-0.51562 2.95313,-0.84375 1.3125,-0.32812 2.20312,-0.49218 0.91407,-0.16407 1.33594,-0.16407 0.84375,0 1.38281,0.30469 0.53907,0.30469 0.86719,0.89063 0.32813,0.58593 0.44531,1.40625 0.14063,0.82031 0.14063,1.875 z"
         id="path363" />
      <path
         d="m 328.23047,74.341797 q -0.46875,3.984375 -0.9375,8.179687 -0.44531,4.171875 -0.86719,8.460938 -0.39844,4.265625 -0.75,8.578125 -0.35156,4.312503 -0.60937,8.507813 -0.25782,4.17187 -0.39844,8.20312 -0.14063,4.03125 -0.14063,7.73438 0,2.32031 0.0469,3.98437 0.0703,1.66407 0.1875,2.8125 0.14062,1.14844 0.35156,1.85157 0.23438,0.70312 0.5625,1.07812 0.32813,0.375 0.77344,0.51563 0.44531,0.11718 1.05469,0.11718 1.125,0 2.41406,-0.32812 1.3125,-0.35156 2.64844,-0.96094 l 0.44531,1.21875 q -0.84375,0.67969 -2.13281,1.38281 -1.26563,0.70313 -2.67188,1.28907 -1.40625,0.58593 -2.76562,0.9375 -1.33594,0.375 -2.32032,0.375 -1.26562,0 -2.01562,-0.65625 -0.72656,-0.63282 -1.125,-2.08594 -0.375,-1.45313 -0.49219,-3.77344 -0.0937,-2.34375 -0.0937,-5.69531 0,-1.21875 0.0703,-3.46875 0.0703,-2.27344 0.1875,-5.27344 0.14063,-3 0.30469,-6.5625 0.16406,-3.5625 0.35156,-7.35937 0.1875,-3.820316 0.39844,-7.687503 0.21094,-3.890625 0.42188,-7.5 0.21093,-3.632813 0.39843,-6.84375 0.1875,-3.210938 0.35157,-5.671875 0.0234,-0.5625 0.32812,-0.960938 0.30469,-0.421875 0.77344,-0.65625 0.49219,-0.257812 1.07812,-0.375 0.60938,-0.117187 1.21875,-0.117187 1.40625,0 2.95313,0.75 z"
         id="path365" />
      <path
         d="m 331.62891,105.98242 q 2.625,-0.79687 4.47656,-1.28906 1.85156,-0.49219 3.09375,-0.77344 1.26562,-0.28125 1.96875,-0.375 0.72656,-0.11719 1.07812,-0.11719 0.58594,0 1.10157,0.1875 0.51562,0.16407 0.89062,0.58594 0.39844,0.42188 0.60938,1.14844 0.21093,0.70312 0.21093,1.75781 0,0.35156 -0.0469,1.38281 -0.0234,1.03125 -0.11719,2.85938 -0.0937,1.80469 -0.25781,4.45312 -0.14063,2.625 -0.375,6.1875 l 0.28125,0.0234 q 1.82812,-4.54687 3.9375,-8.03906 2.13281,-3.51563 4.3125,-5.90625 2.20312,-2.39063 4.38281,-3.60938 2.17969,-1.24218 4.14844,-1.24218 1.59375,0 2.8125,0.60937 1.21875,0.58594 2.10937,1.59375 0.91407,0.98438 1.52344,2.29688 0.60938,1.28906 0.98438,2.71875 0.375,1.40625 0.53906,2.85937 0.16406,1.45313 0.16406,2.71875 0,3.44531 -0.70312,6.44531 -0.70313,3 -1.92188,5.50782 -1.21875,2.48437 -2.88281,4.45312 -1.66406,1.96875 -3.60938,3.32813 -1.92187,1.33593 -4.05468,2.03906 -2.10938,0.72656 -4.24219,0.72656 -2.27344,0 -4.42969,-0.82031 -2.15625,-0.82031 -4.05469,-2.71875 -0.25781,5.88281 -0.51562,12.14062 -0.25781,6.28125 -0.28125,13.10157 l -4.92188,0.5625 -0.49218,-0.0234 q 0.35156,-4.38281 0.65625,-9.21094 0.30468,-4.80469 0.5625,-9.65625 0.25781,-4.85156 0.46875,-9.53906 0.21093,-4.71094 0.35156,-8.83594 0.14062,-4.125 0.21094,-7.47656 0.0937,-3.375 0.0937,-5.57813 0,-0.89062 -0.0937,-1.54687 -0.0937,-0.67969 -0.375,-1.125 -0.25782,-0.44531 -0.77344,-0.65625 -0.51563,-0.23438 -1.35938,-0.23438 -0.86718,0 -2.10937,0.1875 -1.24219,0.1875 -3,0.63282 z m 12.14062,26.4375 q 1.99219,1.6875 3.96094,2.48438 1.99219,0.79687 3.98437,0.79687 2.625,0 4.82813,-1.10156 2.22656,-1.125 3.82031,-3.32813 1.61719,-2.20312 2.50781,-5.4375 0.91407,-3.25781 0.91407,-7.54687 0,-1.59375 -0.25782,-3.28125 -0.23437,-1.6875 -0.77343,-3.04688 -0.51563,-1.38281 -1.38282,-2.25 -0.84375,-0.89062 -2.0625,-0.89062 -1.42968,0 -2.83593,0.75 -1.40625,0.72656 -2.74219,1.99219 -1.3125,1.24218 -2.53125,2.92968 -1.21875,1.6875 -2.29688,3.58594 -1.07812,1.875 -1.96875,3.89063 -0.89062,1.99218 -1.57031,3.89062 -0.65625,1.89844 -1.07812,3.58594 -0.39844,1.6875 -0.51563,2.97656 z"
         id="path367" />
      <path
         d="m 382.23047,93.677734 q -0.82031,0 -1.45313,-0.328125 -0.63281,-0.351562 -1.07812,-0.890625 -0.44531,-0.5625 -0.67969,-1.265625 -0.23437,-0.726562 -0.23437,-1.476562 0,-1.054688 0.35156,-1.851563 0.35156,-0.820312 0.91406,-1.359375 0.5625,-0.5625 1.24219,-0.820312 0.67969,-0.28125 1.33594,-0.28125 0.79687,0 1.42968,0.304687 0.63282,0.28125 1.07813,0.796875 0.46875,0.515625 0.70312,1.195313 0.25782,0.65625 0.25782,1.429687 0,0.820313 -0.28125,1.640625 -0.28125,0.796875 -0.79688,1.453125 -0.49219,0.65625 -1.21875,1.054688 -0.70312,0.398437 -1.57031,0.398437 z m 2.03906,10.593746 q -0.39844,2.67188 -0.67969,5.36719 -0.28125,2.67188 -0.46875,5.17969 -0.16406,2.50781 -0.25781,4.75781 -0.0703,2.22656 -0.0703,4.03125 0,2.4375 0.0703,4.19531 0.0703,1.73438 0.23438,2.92969 0.16406,1.19531 0.39843,1.92188 0.25782,0.70312 0.60938,1.10156 0.375,0.375 0.84375,0.49219 0.49219,0.11718 1.10156,0.11718 1.125,0 2.41406,-0.32812 1.3125,-0.35156 2.64844,-0.96094 l 0.44531,1.21875 q -0.84375,0.67969 -2.13281,1.38281 -1.26562,0.70313 -2.67187,1.28907 -1.40625,0.58593 -2.76563,0.9375 -1.33594,0.375 -2.32031,0.375 -0.65625,0 -1.19531,-0.11719 -0.53907,-0.0937 -0.98438,-0.51563 -0.42187,-0.42187 -0.77344,-1.24218 -0.32812,-0.82032 -0.5625,-2.22657 -0.21093,-1.40625 -0.32812,-3.51562 -0.11719,-2.10938 -0.11719,-5.10938 0,-1.75781 0.0234,-3.96093 0.0469,-2.22657 0.11719,-4.75782 0.0703,-2.55468 0.1875,-5.36718 0.11718,-2.83594 0.30468,-5.83594 0.0469,-0.65625 0.35157,-1.05469 0.30468,-0.42187 0.75,-0.63281 0.44531,-0.23438 0.9375,-0.30469 0.51562,-0.0937 0.9375,-0.0937 1.57031,0 2.95312,0.72656 z"
         id="path369" />
    </g>
  </g>
</svg>
