<?xml version="1.0" encoding="UTF-8" standalone="no"?>
<!-- Created with Inkscape (http://www.inkscape.org/) -->

<svg
   width="198.93687mm"
   height="191.46318mm"
   viewBox="0 0 198.93687 191.46318"
   version="1.1"
   id="svg5"
   xmlns:xlink="http://www.w3.org/1999/xlink"
   xmlns="http://www.w3.org/2000/svg"
   xmlns:svg="http://www.w3.org/2000/svg">
  <defs
     id="defs2">
    <linearGradient
       id="linearGradient5061">
      <stop
         style="stop-color:#ff7f2a;stop-opacity:1;"
         offset="0.45293072"
         id="stop5057" />
      <stop
         style="stop-color:#e742ae;stop-opacity:0.85401458;"
         offset="1"
         id="stop5059" />
    </linearGradient>
    <radialGradient
       xlink:href="#linearGradient5061"
       id="radialGradient5065"
       cx="122.89653"
       cy="146.20216"
       fx="122.89653"
       fy="146.20216"
       r="99.468445"
       gradientTransform="matrix(1,0,0,0.96243168,-17.18064,-23.443243)"
       gradientUnits="userSpaceOnUse" />
  </defs>
  <g
     id="layer1"
     transform="translate(-6.2474429,-21.534776)">
    <path
       style="opacity:1;fill:url(#radialGradient5065);fill-opacity:1;fill-rule:evenodd;stroke:none;stroke-width:0.529167;stroke-linecap:round;stroke-linejoin:bevel;stroke-opacity:1;paint-order:fill markers stroke"
       d="m 41.324203,122.92102 c -0.793268,-1.79016 -1.838988,-3.45508 -2.877288,-5.11517 C 32.785009,108.7533 27.205476,99.58432 23.161471,89.702426 19.117466,79.820533 16.641351,69.124364 17.446598,58.477421 18.251846,47.830479 22.567794,37.230562 30.467563,30.047286 c 3.949885,-3.591638 8.744359,-6.281469 13.918124,-7.598133 5.173765,-1.316664 10.72127,-1.237116 15.800733,0.406206 4.863368,1.573411 9.219474,4.542101 12.736641,8.251212 3.517167,3.709112 6.218091,8.143096 8.247488,12.834526 4.058795,9.382861 5.443417,19.662678 6.997223,29.767013 1.553807,10.104334 3.382996,20.376838 8.201789,29.393 2.409396,4.50808 5.565189,8.65514 9.513609,11.90135 3.94842,3.24622 8.71134,5.56752 13.76719,6.32007 5.18126,0.77122 10.57799,-0.13517 15.28848,-2.42679 4.71049,-2.29161 8.72795,-5.94371 11.58129,-10.33674 2.85333,-4.39303 4.54996,-9.509701 5.03444,-14.72559 0.48447,-5.215888 -0.23145,-10.524055 -1.93995,-15.475946 -3.41701,-9.903781 -10.7521,-18.199154 -19.60305,-23.80465 -8.85095,-5.605497 -19.14796,-8.653652 -29.54313,-9.957952 C 91.485454,43.467752 82.290358,43.607904 73.46845,45.6422 64.646543,47.676496 56.201533,51.652236 49.415617,57.645212 42.629701,63.638187 37.569889,71.699455 35.7248,80.562866 c -1.845089,8.863411 -0.338076,18.491771 4.640307,26.053524 5.661802,8.59981 15.177301,13.92013 24.873561,17.38355 9.69626,3.46343 19.896287,5.39789 29.521544,9.05401 4.812629,1.82806 9.485918,4.09478 13.668298,7.09659 4.18238,3.00182 7.87067,6.76151 10.43937,11.22301 2.56871,4.46149 3.98025,9.64675 3.62101,14.78233 -0.35924,5.13557 -2.56171,10.19119 -6.35522,13.67149 -3.93972,3.61444 -9.40715,5.36284 -14.75158,5.21223 -5.344429,-0.15061 -10.55,-2.10543 -14.988648,-5.08604 -8.877297,-5.96122 -14.506512,-15.59533 -19.398604,-25.10374 -4.892092,-9.50841 -9.513559,-19.45414 -17.187049,-26.90129 -3.836745,-3.72358 -8.425589,-6.75467 -13.538384,-8.3183 -5.112796,-1.56364 -10.768838,-1.59049 -15.725611,0.41351 -3.267784,1.32115 -6.173405,3.4951 -8.442221,6.19257 -2.2688166,2.69746 -3.9048688,5.90982 -4.8519303,9.30495 -1.894123,6.79026 -0.9919671,14.18721 1.7690021,20.67354 2.7609692,6.48633 7.2906422,12.1113 12.5248782,16.83339 5.234235,4.72209 11.175741,8.59122 17.223091,12.21406 17.812824,10.67128 37.656294,19.57831 58.415045,19.08112 10.379371,-0.24859 20.800651,-2.94249 29.571661,-8.4979 8.77101,-5.55542 15.79405,-14.07065 18.79262,-24.01056 2.95511,-9.79587 1.95127,-20.27272 2.22288,-30.50102 0.1358,-5.11414 0.60509,-10.25757 2.04061,-15.16799 1.43552,-4.91042 3.88469,-9.60227 7.56536,-13.15553 4.89123,-4.72191 11.81996,-7.16458 18.61247,-6.87773 6.79252,0.28685 13.38405,3.22397 18.37056,7.84516 4.9865,4.62118 8.38159,10.8602 9.88527,17.4904 1.50369,6.63019 1.15323,13.62852 -0.67691,20.17613 -3.66027,13.09522 -13.03714,24.02986 -24.09169,31.94688 -11.05455,7.91702 -23.77978,13.1351 -36.48613,17.97567 -15.66475,5.96759 -31.90119,11.54246 -48.663764,11.42937 -8.381287,-0.0565 -16.813571,-1.57663 -24.446444,-5.03905 -7.632872,-3.46243 -14.440165,-8.92485 -18.962991,-15.98128 -4.897751,-7.64138 -6.949453,-16.79968 -7.580898,-25.85395 -0.631445,-9.05428 0.06914,-18.14114 0.227831,-27.21602 0.09485,-5.424 -0.04012,-11.02523 -2.237891,-15.98493 z"
       id="path5053" />
  </g>
</svg>
